<?xml version="1.0" encoding="UTF-8" standalone="no"?>
<!-- Created with Inkscape (http://www.inkscape.org/) -->

<svg
   xmlns:dc="http://purl.org/dc/elements/1.1/"
   xmlns:cc="http://creativecommons.org/ns#"
   xmlns:rdf="http://www.w3.org/1999/02/22-rdf-syntax-ns#"
   xmlns:svg="http://www.w3.org/2000/svg"
   xmlns="http://www.w3.org/2000/svg"
   xmlns:sodipodi="http://sodipodi.sourceforge.net/DTD/sodipodi-0.dtd"
   xmlns:inkscape="http://www.inkscape.org/namespaces/inkscape"
   width="128"
   height="128"
   viewBox="0 0 128 128"
   id="svg2"
   version="1.1"
   inkscape:version="0.91 r13725"
   sodipodi:docname="mbr.svg">
  <defs
     id="defs4" />
  <sodipodi:namedview
     id="base"
     pagecolor="#ffffff"
     bordercolor="#666666"
     borderopacity="1.0"
     inkscape:pageopacity="0.0"
     inkscape:pageshadow="2"
     inkscape:zoom="2.8"
     inkscape:cx="89.92665"
     inkscape:cy="68.010744"
     inkscape:document-units="px"
     inkscape:current-layer="layer1"
     showgrid="false"
     units="px"
     inkscape:window-width="1366"
     inkscape:window-height="711"
     inkscape:window-x="0"
     inkscape:window-y="0"
     inkscape:window-maximized="1" />
  <metadata
     id="metadata7">
    <rdf:RDF>
      <cc:Work
         rdf:about="">
        <dc:format>image/svg+xml</dc:format>
        <dc:type
           rdf:resource="http://purl.org/dc/dcmitype/StillImage" />
        <dc:title></dc:title>
      </cc:Work>
    </rdf:RDF>
  </metadata>
  <g
     inkscape:label="Layer 1"
     inkscape:groupmode="layer"
     id="layer1"
     transform="translate(0,-924.36216)">
    <path
       style="opacity:1;fill:none;fill-opacity:1;stroke:#000000;stroke-width:4;stroke-linecap:round;stroke-linejoin:round;stroke-miterlimit:4;stroke-dasharray:none;stroke-opacity:1"
       id="path4136"
       sodipodi:type="arc"
       sodipodi:cx="64"
       sodipodi:cy="988.36218"
       sodipodi:rx="60"
       sodipodi:ry="60"
       sodipodi:start="0"
       sodipodi:end="6.2784904"
       sodipodi:open="true"
       d="M 124,988.36218 A 60,60 0 0 1 64.070424,1048.3621 60,60 0 0 1 4.0001653,988.50303 60,60 0 0 1 63.78873,928.36255 a 60,60 0 0 1 60.21061,59.71794" />
    <path
       style="opacity:1;fill:none;fill-opacity:1;stroke:#000000;stroke-width:3.93026757;stroke-linecap:round;stroke-linejoin:round;stroke-miterlimit:4;stroke-dasharray:none;stroke-opacity:1"
       id="path4136-3"
       sodipodi:type="arc"
       sodipodi:cx="63.999905"
       sodipodi:cy="988.36218"
       sodipodi:rx="38.034767"
       sodipodi:ry="38.034863"
       sodipodi:start="0"
       sodipodi:end="6.2784904"
       sodipodi:open="true"
       d="M 102.03467,988.36218 A 38.034767,38.034863 0 0 1 64.044547,1026.397 38.034767,38.034863 0 0 1 25.965242,988.45147 38.034767,38.034863 0 0 1 63.865978,950.32756 38.034767,38.034863 0 0 1 102.03425,988.18361" />
    <path
       style="opacity:1;fill:#808080;fill-opacity:1;stroke:#000000;stroke-width:2;stroke-linecap:round;stroke-linejoin:round;stroke-miterlimit:4;stroke-dasharray:none;stroke-opacity:1"
       id="path4136-3-6"
       sodipodi:type="arc"
       sodipodi:cx="90.178535"
       sodipodi:cy="970.39783"
       sodipodi:rx="13.438383"
       sodipodi:ry="13.438416"
       sodipodi:start="0"
       sodipodi:end="6.2784904"
       sodipodi:open="true"
       d="m 103.61692,970.39783 a 13.438383,13.438416 0 0 1 -13.422612,13.4384 13.438383,13.438416 0 0 1 -13.454119,-13.40686 13.438383,13.438416 0 0 1 13.391028,-13.46988 13.438383,13.438416 0 0 1 13.485553,13.37525" />
  </g>
</svg>
