<?xml version="1.0" encoding="UTF-8" standalone="no"?>
<!-- Created with Inkscape (http://www.inkscape.org/) -->

<svg
   xmlns:dc="http://purl.org/dc/elements/1.1/"
   xmlns:cc="http://creativecommons.org/ns#"
   xmlns:rdf="http://www.w3.org/1999/02/22-rdf-syntax-ns#"
   xmlns:svg="http://www.w3.org/2000/svg"
   xmlns="http://www.w3.org/2000/svg"
   xmlns:sodipodi="http://sodipodi.sourceforge.net/DTD/sodipodi-0.dtd"
   xmlns:inkscape="http://www.inkscape.org/namespaces/inkscape"
   width="512"
   height="512"
   viewBox="0 0 512.00001 512.00001"
   id="svg2"
   version="1.1"
   inkscape:version="0.91 r13725"
   sodipodi:docname="yaninaYukle.svg">
  <defs
     id="defs4" />
  <sodipodi:namedview
     id="base"
     pagecolor="#ffffff"
     bordercolor="#666666"
     borderopacity="1.0"
     inkscape:pageopacity="0.0"
     inkscape:pageshadow="2"
     inkscape:zoom="0.71160935"
     inkscape:cx="402.71428"
     inkscape:cy="337.94443"
     inkscape:document-units="px"
     inkscape:current-layer="layer1"
     showgrid="false"
     units="px"
     inkscape:window-width="1440"
     inkscape:window-height="848"
     inkscape:window-x="-8"
     inkscape:window-y="-8"
     inkscape:window-maximized="1" />
  <metadata
     id="metadata7">
    <rdf:RDF>
      <cc:Work
         rdf:about="">
        <dc:format>image/svg+xml</dc:format>
        <dc:type
           rdf:resource="http://purl.org/dc/dcmitype/StillImage" />
        <dc:title />
      </cc:Work>
    </rdf:RDF>
  </metadata>
  <g
     inkscape:label="Layer 1"
     inkscape:groupmode="layer"
     id="layer1"
     transform="translate(0,-540.36216)">
    <rect
       style="fill:none;fill-opacity:1;stroke:#394050;stroke-width:14.61543655;stroke-linecap:round;stroke-linejoin:round;stroke-miterlimit:4;stroke-dasharray:none;stroke-dashoffset:50;stroke-opacity:1"
       id="rect4147"
       width="210.38457"
       height="294.35336"
       x="9.3077183"
       y="675.70105"
       rx="44.74823"
       ry="37.090458" />
    <path
       style="fill:#ff5555;fill-opacity:1;stroke:#394050;stroke-width:10;stroke-linecap:round;stroke-linejoin:round;stroke-miterlimit:4;stroke-dasharray:none;stroke-dashoffset:50;stroke-opacity:1"
       id="path4149"
       sodipodi:type="arc"
       sodipodi:cx="112.93581"
       sodipodi:cy="780.87115"
       sodipodi:rx="80.384903"
       sodipodi:ry="80.384903"
       sodipodi:start="0"
       sodipodi:end="6.2797296"
       sodipodi:open="true"
       d="m 193.32071,780.87115 a 80.384903,80.384903 0 0 1 -80.31546,80.38488 80.384903,80.384903 0 0 1 -80.454227,-80.24598 80.384903,80.384903 0 0 1 80.176447,-80.52353 80.384903,80.384903 0 0 1 80.59276,80.10685" />
    <rect
       style="fill:none;fill-opacity:1;stroke:#394050;stroke-width:14.61543655;stroke-linecap:round;stroke-linejoin:round;stroke-miterlimit:4;stroke-dasharray:none;stroke-dashoffset:50;stroke-opacity:1"
       id="rect4147-1"
       width="210.38457"
       height="294.35336"
       x="289.09344"
       y="675.70105"
       rx="44.74823"
       ry="37.090458" />
    <path
       style="fill:#ff5555;fill-opacity:1;stroke:none;stroke-width:10;stroke-linecap:round;stroke-linejoin:round;stroke-miterlimit:4;stroke-dasharray:none;stroke-dashoffset:50;stroke-opacity:1"
       id="path4149-4"
       sodipodi:type="arc"
       sodipodi:cx="392.72153"
       sodipodi:cy="780.87115"
       sodipodi:rx="80.384903"
       sodipodi:ry="80.384903"
       sodipodi:start="0"
       sodipodi:end="6.2797296"
       sodipodi:open="true"
       d="m 473.10643,780.87115 a 80.384903,80.384903 0 0 1 -80.31546,80.38488 80.384903,80.384903 0 0 1 -80.45423,-80.24598 80.384903,80.384903 0 0 1 80.17645,-80.52353 80.384903,80.384903 0 0 1 80.59276,80.10685" />
    <path
       style="fill:#5fd38d;fill-opacity:1;stroke:none;stroke-width:10;stroke-linecap:round;stroke-linejoin:round;stroke-miterlimit:4;stroke-dasharray:none;stroke-dashoffset:50;stroke-opacity:1"
       id="path4149-6"
       sodipodi:type="arc"
       sodipodi:cx="769.51331"
       sodipodi:cy="-410.23151"
       sodipodi:rx="77.732292"
       sodipodi:ry="77.732292"
       sodipodi:start="5.3300979"
       sodipodi:end="3.1264607"
       d="m 814.53344,-473.59946 a 77.732292,77.732292 0 0 1 26.36973,94.12177 77.732292,77.732292 0 0 1 -86.51393,45.49297 77.732292,77.732292 0 0 1 -62.59933,-75.07059 l 77.7234,-1.1762 z"
       transform="matrix(-0.02403246,0.99971118,-0.99971118,-0.02403246,0,0)" />
    <path
       style="fill:none;fill-opacity:1;stroke:#394050;stroke-width:10;stroke-linecap:round;stroke-linejoin:round;stroke-miterlimit:4;stroke-dasharray:none;stroke-dashoffset:50;stroke-opacity:1"
       id="path4149-4-5"
       sodipodi:type="arc"
       sodipodi:cx="393.5712"
       sodipodi:cy="780.02057"
       sodipodi:rx="80.384903"
       sodipodi:ry="80.384903"
       sodipodi:start="0"
       sodipodi:end="6.2797296"
       sodipodi:open="true"
       d="m 473.9561,780.02057 a 80.384903,80.384903 0 0 1 -80.31546,80.38487 80.384903,80.384903 0 0 1 -80.45423,-80.24598 80.384903,80.384903 0 0 1 80.17645,-80.52352 80.384903,80.384903 0 0 1 80.59276,80.10684" />
    <rect
       style="fill:#394050;fill-opacity:1;stroke:none;stroke-width:10;stroke-linecap:round;stroke-linejoin:round;stroke-miterlimit:4;stroke-dasharray:none;stroke-dashoffset:50;stroke-opacity:1"
       id="rect4220"
       width="40.6357"
       height="38.808323"
       x="230.62534"
       y="804.70691" />
    <path
       style="fill:#394050;fill-opacity:1;fill-rule:evenodd;stroke:none;stroke-width:1px;stroke-linecap:butt;stroke-linejoin:miter;stroke-opacity:1"
       d="m 279.80207,825.64725 -14.04398,-38.96073 -12.68489,18.5743 -0.45303,38.96073 10.19321,19.02733 z"
       id="path4222"
       inkscape:connector-curvature="0"
       sodipodi:nodetypes="cccccc" />
    <path
       style="fill:none;fill-rule:evenodd;stroke:#394050;stroke-width:30;stroke-linecap:butt;stroke-linejoin:miter;stroke-miterlimit:4;stroke-dasharray:none;stroke-opacity:1"
       d="m 97.043093,948.62991 -44.3938,0.43846 c 0,0 -10.94292,1.43955 -16.98772,-4.02077 -6.04465,-5.45448 -5.94478,-16.01261 -5.94478,-16.01261 l 1.30516,-42.08515"
       id="path4151-2-9-5-7"
       inkscape:connector-curvature="0"
       sodipodi:nodetypes="cczcc" />
    <path
       style="fill:#394050;fill-opacity:1;fill-rule:evenodd;stroke:none;stroke-width:1px;stroke-linecap:butt;stroke-linejoin:miter;stroke-opacity:1"
       d="m 52.604753,931.01954 c -23.13887,-31.27255 33.87002,-74.21925 59.040627,-95.15877 -4.27494,17.42259 -15.820617,113.86557 -59.040627,95.15877 z"
       id="path4289-7-5"
       inkscape:connector-curvature="0"
       sodipodi:nodetypes="ccc" />
    <path
       style="fill:none;fill-rule:evenodd;stroke:#394050;stroke-width:30;stroke-linecap:butt;stroke-linejoin:miter;stroke-miterlimit:4;stroke-dasharray:none;stroke-opacity:1"
       d="m 377.23925,948.27728 -44.3938,0.4385 c 0,0 -10.94292,1.4395 -16.98772,-4.02082 -6.04465,-5.45448 -5.94478,-16.01261 -5.94478,-16.01261 l 1.30516,-42.08515"
       id="path4151-2-9-5-7-6"
       inkscape:connector-curvature="0"
       sodipodi:nodetypes="cczcc" />
    <path
       style="fill:#394050;fill-opacity:1;fill-rule:evenodd;stroke:none;stroke-width:1px;stroke-linecap:butt;stroke-linejoin:miter;stroke-opacity:1"
       d="m 332.80091,930.6669 c -23.13887,-31.27255 33.87002,-74.21925 59.04063,-95.15877 -4.27494,17.42259 -15.82062,113.86555 -59.04063,95.15877 z"
       id="path4289-7-5-8"
       inkscape:connector-curvature="0"
       sodipodi:nodetypes="ccc" />
  </g>
</svg>
