<?xml version="1.0" encoding="UTF-8" standalone="no"?>
<!-- Created with Inkscape (http://www.inkscape.org/) -->

<svg
   xmlns:dc="http://purl.org/dc/elements/1.1/"
   xmlns:cc="http://creativecommons.org/ns#"
   xmlns:rdf="http://www.w3.org/1999/02/22-rdf-syntax-ns#"
   xmlns:svg="http://www.w3.org/2000/svg"
   xmlns="http://www.w3.org/2000/svg"
   xmlns:sodipodi="http://sodipodi.sourceforge.net/DTD/sodipodi-0.dtd"
   xmlns:inkscape="http://www.inkscape.org/namespaces/inkscape"
   width="512"
   height="512"
   viewBox="0 0 512.00001 512.00001"
   id="svg2"
   version="1.1"
   inkscape:version="0.91 r13725"
   sodipodi:docname="uzerineYaz.svg">
  <defs
     id="defs4" />
  <sodipodi:namedview
     id="base"
     pagecolor="#ffffff"
     bordercolor="#666666"
     borderopacity="1.0"
     inkscape:pageopacity="0.0"
     inkscape:pageshadow="2"
     inkscape:zoom="0.27591885"
     inkscape:cx="838.05964"
     inkscape:cy="56.00531"
     inkscape:document-units="px"
     inkscape:current-layer="layer1"
     showgrid="false"
     units="px"
     inkscape:window-width="1440"
     inkscape:window-height="848"
     inkscape:window-x="-8"
     inkscape:window-y="-8"
     inkscape:window-maximized="1" />
  <metadata
     id="metadata7">
    <rdf:RDF>
      <cc:Work
         rdf:about="">
        <dc:format>image/svg+xml</dc:format>
        <dc:type
           rdf:resource="http://purl.org/dc/dcmitype/StillImage" />
        <dc:title></dc:title>
      </cc:Work>
    </rdf:RDF>
  </metadata>
  <g
     inkscape:label="Layer 1"
     inkscape:groupmode="layer"
     id="layer1"
     transform="translate(0,-540.36216)">
    <rect
       style="fill:none;fill-opacity:1;stroke:#394050;stroke-width:14.61543655;stroke-linecap:round;stroke-linejoin:round;stroke-miterlimit:4;stroke-dasharray:none;stroke-dashoffset:50;stroke-opacity:1"
       id="rect4147-1"
       width="210.38457"
       height="294.35336"
       x="289.09344"
       y="675.70105"
       rx="44.74823"
       ry="37.090458" />
    <path
       style="fill:#ff5555;fill-opacity:1;stroke:none;stroke-width:10;stroke-linecap:round;stroke-linejoin:round;stroke-miterlimit:4;stroke-dasharray:none;stroke-dashoffset:50;stroke-opacity:1"
       id="path4149-6-7-8"
       sodipodi:type="arc"
       sodipodi:cx="770.86426"
       sodipodi:cy="-414.02628"
       sodipodi:rx="77.732292"
       sodipodi:ry="77.732292"
       sodipodi:start="0.8938796"
       sodipodi:end="3.1264607"
       d="m 819.55519,-353.43335 a 77.732292,77.732292 0 0 1 -81.75614,9.75621 77.732292,77.732292 0 0 1 -44.65819,-69.17294 l 77.7234,-1.1762 z"
       transform="matrix(-0.02403246,0.99971118,-0.99971118,-0.02403246,0,0)" />
    <path
       style="fill:none;fill-opacity:1;stroke:#394050;stroke-width:10;stroke-linecap:round;stroke-linejoin:round;stroke-miterlimit:4;stroke-dasharray:none;stroke-dashoffset:50;stroke-opacity:1"
       id="path4149-4-5"
       sodipodi:type="arc"
       sodipodi:cx="393.5712"
       sodipodi:cy="780.02057"
       sodipodi:rx="80.384903"
       sodipodi:ry="80.384903"
       sodipodi:start="0"
       sodipodi:end="6.2797296"
       sodipodi:open="true"
       d="m 473.9561,780.02057 a 80.384903,80.384903 0 0 1 -80.31546,80.38487 80.384903,80.384903 0 0 1 -80.45423,-80.24598 80.384903,80.384903 0 0 1 80.17645,-80.52352 80.384903,80.384903 0 0 1 80.59276,80.10684" />
    <rect
       style="fill:#394050;fill-opacity:1;stroke:none;stroke-width:10;stroke-linecap:round;stroke-linejoin:round;stroke-miterlimit:4;stroke-dasharray:none;stroke-dashoffset:50;stroke-opacity:1"
       id="rect4220"
       width="40.6357"
       height="38.808323"
       x="230.62534"
       y="804.70691" />
    <path
       style="fill:#394050;fill-opacity:1;fill-rule:evenodd;stroke:none;stroke-width:1px;stroke-linecap:butt;stroke-linejoin:miter;stroke-opacity:1"
       d="m 279.80207,825.64725 -14.04398,-38.96073 -12.68489,18.5743 -0.45303,38.96073 10.19321,19.02733 z"
       id="path4222"
       inkscape:connector-curvature="0"
       sodipodi:nodetypes="cccccc" />
    <rect
       style="fill:none;fill-opacity:1;stroke:#394050;stroke-width:14.61543655;stroke-linecap:round;stroke-linejoin:round;stroke-miterlimit:4;stroke-dasharray:none;stroke-dashoffset:50;stroke-opacity:1"
       id="rect4147-1-7"
       width="210.38457"
       height="294.35336"
       x="9.3077183"
       y="675.70105"
       rx="44.74823"
       ry="37.090458" />
    <path
       style="fill:#5fd38d;fill-opacity:1;stroke:none;stroke-width:10;stroke-linecap:round;stroke-linejoin:round;stroke-miterlimit:4;stroke-dasharray:none;stroke-dashoffset:50;stroke-opacity:1"
       id="path4149-6-7"
       sodipodi:type="arc"
       sodipodi:cx="776.2373"
       sodipodi:cy="-130.5266"
       sodipodi:rx="77.732292"
       sodipodi:ry="77.732292"
       sodipodi:start="0.8938796"
       sodipodi:end="3.1264607"
       d="m 824.92823,-69.933671 a 77.732292,77.732292 0 0 1 -81.75613,9.756214 77.732292,77.732292 0 0 1 -44.65819,-69.172943 l 77.72339,-1.1762 z"
       transform="matrix(-0.02403246,0.99971118,-0.99971118,-0.02403246,0,0)" />
    <path
       style="fill:none;fill-opacity:1;stroke:#394050;stroke-width:10;stroke-linecap:round;stroke-linejoin:round;stroke-miterlimit:4;stroke-dasharray:none;stroke-dashoffset:50;stroke-opacity:1"
       id="path4149-4-5-9"
       sodipodi:type="arc"
       sodipodi:cx="113.78547"
       sodipodi:cy="780.02057"
       sodipodi:rx="80.384903"
       sodipodi:ry="80.384903"
       sodipodi:start="0"
       sodipodi:end="6.2797296"
       sodipodi:open="true"
       d="m 194.17037,780.02057 a 80.384903,80.384903 0 0 1 -80.31545,80.38487 80.384903,80.384903 0 0 1 -80.454234,-80.24598 80.384903,80.384903 0 0 1 80.176444,-80.52352 80.384903,80.384903 0 0 1 80.59276,80.10684" />
    <path
       style="fill:none;fill-rule:evenodd;stroke:#394050;stroke-width:30;stroke-linecap:butt;stroke-linejoin:miter;stroke-miterlimit:4;stroke-dasharray:none;stroke-opacity:1"
       d="m 377.34096,948.45197 -44.3938,0.43846 c 0,0 -10.94292,1.43955 -16.98772,-4.02077 -6.04465,-5.45448 -5.94478,-16.01261 -5.94478,-16.01261 l 1.30516,-42.08515"
       id="path4151-2-9-5"
       inkscape:connector-curvature="0"
       sodipodi:nodetypes="cczcc" />
    <path
       style="fill:#394050;fill-opacity:1;fill-rule:evenodd;stroke:none;stroke-width:1px;stroke-linecap:butt;stroke-linejoin:miter;stroke-opacity:1"
       d="m 332.90262,930.8416 c -23.13887,-31.27255 33.87002,-74.21925 59.04063,-95.15877 -4.27494,17.42259 -15.82062,113.86557 -59.04063,95.15877 z"
       id="path4289-7"
       inkscape:connector-curvature="0"
       sodipodi:nodetypes="ccc" />
    <path
       style="fill:none;fill-rule:evenodd;stroke:#394050;stroke-width:30;stroke-linecap:butt;stroke-linejoin:miter;stroke-miterlimit:4;stroke-dasharray:none;stroke-opacity:1"
       d="m 97.370578,948.18793 -44.3938,0.43846 c 0,0 -10.94292,1.43955 -16.98772,-4.02077 -6.04465,-5.45448 -5.94478,-16.01261 -5.94478,-16.01261 l 1.30516,-42.08515"
       id="path4151-2-9-5-7"
       inkscape:connector-curvature="0"
       sodipodi:nodetypes="cczcc" />
    <path
       style="fill:#394050;fill-opacity:1;fill-rule:evenodd;stroke:none;stroke-width:1px;stroke-linecap:butt;stroke-linejoin:miter;stroke-opacity:1"
       d="m 52.932238,930.57756 c -23.13887,-31.27255 33.87002,-74.21925 59.040632,-95.15877 -4.27494,17.42259 -15.820622,113.86557 -59.040632,95.15877 z"
       id="path4289-7-5"
       inkscape:connector-curvature="0"
       sodipodi:nodetypes="ccc" />
  </g>
</svg>
