<?xml version="1.0" encoding="UTF-8" standalone="no"?>
<!-- Created with Inkscape (http://www.inkscape.org/) -->

<svg
   xmlns:dc="http://purl.org/dc/elements/1.1/"
   xmlns:cc="http://creativecommons.org/ns#"
   xmlns:rdf="http://www.w3.org/1999/02/22-rdf-syntax-ns#"
   xmlns:svg="http://www.w3.org/2000/svg"
   xmlns="http://www.w3.org/2000/svg"
   xmlns:sodipodi="http://sodipodi.sourceforge.net/DTD/sodipodi-0.dtd"
   xmlns:inkscape="http://www.inkscape.org/namespaces/inkscape"
   width="512"
   height="512"
   viewBox="0 0 512.00001 512.00001"
   id="svg2"
   version="1.1"
   inkscape:version="0.91 r13725"
   sodipodi:docname="elleBolumle.svg">
  <defs
     id="defs4" />
  <sodipodi:namedview
     id="base"
     pagecolor="#ffffff"
     bordercolor="#666666"
     borderopacity="1.0"
     inkscape:pageopacity="0.0"
     inkscape:pageshadow="2"
     inkscape:zoom="0.5031838"
     inkscape:cx="363.8126"
     inkscape:cy="11.307955"
     inkscape:document-units="px"
     inkscape:current-layer="layer1"
     showgrid="false"
     units="px"
     inkscape:window-width="1440"
     inkscape:window-height="848"
     inkscape:window-x="-8"
     inkscape:window-y="-8"
     inkscape:window-maximized="1" />
  <metadata
     id="metadata7">
    <rdf:RDF>
      <cc:Work
         rdf:about="">
        <dc:format>image/svg+xml</dc:format>
        <dc:type
           rdf:resource="http://purl.org/dc/dcmitype/StillImage" />
        <dc:title></dc:title>
      </cc:Work>
    </rdf:RDF>
  </metadata>
  <g
     inkscape:label="Layer 1"
     inkscape:groupmode="layer"
     id="layer1"
     transform="translate(0,-540.36216)">
    <path
       style="fill:#afdde9;fill-opacity:1;stroke:none;stroke-width:10;stroke-linecap:round;stroke-linejoin:round;stroke-miterlimit:4;stroke-dasharray:none;stroke-dashoffset:50;stroke-opacity:1"
       id="path4149-6-7-5-9-6-3"
       sodipodi:type="arc"
       sodipodi:cx="-119.75364"
       sodipodi:cy="808.88898"
       sodipodi:rx="77.732292"
       sodipodi:ry="77.732292"
       sodipodi:start="0.8938796"
       sodipodi:end="3.1264607"
       d="m -71.062709,869.4819 a 77.732292,77.732292 0 0 1 -81.756141,9.75622 77.732292,77.732292 0 0 1 -44.65818,-69.17295 l 77.72339,-1.17619 z"
       transform="matrix(0.89704334,-0.44194259,0.44194259,0.89704334,0,0)"
       inkscape:transform-center-x="-0.048493851"
       inkscape:transform-center-y="38.266007" />
    <path
       style="fill:#d35f5f;fill-opacity:1;stroke:none;stroke-width:10;stroke-linecap:round;stroke-linejoin:round;stroke-miterlimit:4;stroke-dasharray:none;stroke-dashoffset:50;stroke-opacity:1"
       id="path4149-6-7-5-9-6"
       sodipodi:type="arc"
       sodipodi:cx="-814.17114"
       sodipodi:cy="77.242348"
       sodipodi:rx="77.732292"
       sodipodi:ry="77.732292"
       sodipodi:start="0.8938796"
       sodipodi:end="3.1264607"
       d="m -765.48021,137.83527 a 77.732292,77.732292 0 0 1 -81.75614,9.75622 77.732292,77.732292 0 0 1 -44.65819,-69.172946 l 77.7234,-1.176196 z"
       transform="matrix(-0.2141024,-0.97681122,0.97681122,-0.2141024,0,0)"
       inkscape:transform-center-x="-38.144748"
       inkscape:transform-center-y="7.985483" />
    <path
       style="fill:#ffb380;fill-opacity:1;stroke:none;stroke-width:10;stroke-linecap:round;stroke-linejoin:round;stroke-miterlimit:4;stroke-dasharray:none;stroke-dashoffset:50;stroke-opacity:1"
       id="path4149-6-7-5-9"
       sodipodi:type="arc"
       sodipodi:cx="-482.58267"
       sodipodi:cy="-660.15295"
       sodipodi:rx="77.732292"
       sodipodi:ry="77.732292"
       sodipodi:start="0.8938796"
       sodipodi:end="3.1264607"
       d="m -433.89174,-599.56003 a 77.732292,77.732292 0 0 1 -81.75614,9.75621 77.732292,77.732292 0 0 1 -44.65819,-69.17294 l 77.7234,-1.17619 z"
       transform="matrix(-0.9490894,-0.31500684,0.31500684,-0.9490894,0,0)" />
    <path
       style="fill:#ffe680;fill-opacity:1;stroke:none;stroke-width:10;stroke-linecap:round;stroke-linejoin:round;stroke-miterlimit:4;stroke-dasharray:none;stroke-dashoffset:50;stroke-opacity:1"
       id="path4149-6-7-5"
       sodipodi:type="arc"
       sodipodi:cx="-27.602287"
       sodipodi:cy="-817.78186"
       sodipodi:rx="77.732292"
       sodipodi:ry="77.732292"
       sodipodi:start="0.8938796"
       sodipodi:end="3.1264607"
       d="m 21.088643,-757.18894 a 77.732292,77.732292 0 0 1 -81.756137,9.75622 77.732292,77.732292 0 0 1 -44.658186,-69.17294 l 77.723393,-1.1762 z"
       transform="matrix(-0.96202072,0.27297644,-0.27297644,-0.96202072,0,0)" />
    <rect
       style="fill:none;fill-opacity:1;stroke:#394050;stroke-width:14.61543655;stroke-linecap:round;stroke-linejoin:round;stroke-miterlimit:4;stroke-dasharray:none;stroke-dashoffset:50;stroke-opacity:1"
       id="rect4147-1-7"
       width="210.38457"
       height="294.35336"
       x="147.30772"
       y="675.70105"
       rx="44.74823"
       ry="37.090458" />
    <path
       style="fill:#5fd38d;fill-opacity:1;stroke:none;stroke-width:10;stroke-linecap:round;stroke-linejoin:round;stroke-miterlimit:4;stroke-dasharray:none;stroke-dashoffset:50;stroke-opacity:1"
       id="path4149-6-7"
       sodipodi:type="arc"
       sodipodi:cx="772.92084"
       sodipodi:cy="-268.48672"
       sodipodi:rx="77.732292"
       sodipodi:ry="77.732292"
       sodipodi:start="0.8938796"
       sodipodi:end="3.1264607"
       d="m 821.61177,-207.8938 a 77.732292,77.732292 0 0 1 -81.75614,9.75621 77.732292,77.732292 0 0 1 -44.65819,-69.17294 l 77.7234,-1.17619 z"
       transform="matrix(-0.02403246,0.99971118,-0.99971118,-0.02403246,0,0)" />
    <path
       style="fill:none;fill-opacity:1;stroke:#394050;stroke-width:10;stroke-linecap:round;stroke-linejoin:round;stroke-miterlimit:4;stroke-dasharray:none;stroke-dashoffset:50;stroke-opacity:1"
       id="path4149-4-5-9"
       sodipodi:type="arc"
       sodipodi:cx="251.78546"
       sodipodi:cy="780.02057"
       sodipodi:rx="80.384903"
       sodipodi:ry="80.384903"
       sodipodi:start="0"
       sodipodi:end="6.2797296"
       sodipodi:open="true"
       d="m 332.17036,780.02057 a 80.384903,80.384903 0 0 1 -80.31545,80.38487 80.384903,80.384903 0 0 1 -80.45423,-80.24598 80.384903,80.384903 0 0 1 80.17644,-80.52352 80.384903,80.384903 0 0 1 80.59276,80.10684" />
    <path
       style="fill:none;fill-rule:evenodd;stroke:#394050;stroke-width:30;stroke-linecap:butt;stroke-linejoin:miter;stroke-miterlimit:4;stroke-dasharray:none;stroke-opacity:1"
       d="m 235.37058,948.18793 -44.3938,0.43846 c 0,0 -10.94292,1.43955 -16.98772,-4.02077 -6.04465,-5.45448 -5.94478,-16.01261 -5.94478,-16.01261 l 1.30516,-42.08515"
       id="path4151-2-9-5-7"
       inkscape:connector-curvature="0"
       sodipodi:nodetypes="cczcc" />
    <path
       style="fill:#394050;fill-opacity:1;fill-rule:evenodd;stroke:none;stroke-width:1px;stroke-linecap:butt;stroke-linejoin:miter;stroke-opacity:1"
       d="m 190.93224,930.57756 c -23.13887,-31.27255 33.87002,-74.21925 59.04063,-95.15877 -4.27494,17.42259 -15.82062,113.86557 -59.04063,95.15877 z"
       id="path4289-7-5"
       inkscape:connector-curvature="0"
       sodipodi:nodetypes="ccc" />
    <path
       style="fill:#394050;fill-opacity:1;fill-rule:evenodd;stroke:none;stroke-width:1px;stroke-linecap:butt;stroke-linejoin:miter;stroke-opacity:1"
       d="m 285.18406,886.91566 -0.49683,26.33232 25.83549,0 0,-28.31967 c 0,0 9.97096,10.25865 12.42091,17.38927 2.44995,7.13062 3.16587,17.627 -0.0603,24.55078 -3.22614,6.92378 -16.33532,12.71195 -16.33532,12.71195 0,0 5.13542,84.61629 3.47785,89.43049 -1.65757,4.8142 -5.60309,11.5346 -12.39336,11.5728 -6.79027,0.038 -10.61722,-5.5349 -12.36063,-10.8728 -1.74341,-5.3378 1.89952,-88.14315 1.89952,-88.14315 0,0 -15.01371,-9.95528 -17.45838,-15.37329 -2.44466,-5.41802 0.4245,-21.78363 4.02615,-28.68196 3.60164,-6.89832 11.44488,-10.59674 11.44488,-10.59674 z"
       id="path4205"
       inkscape:connector-curvature="0"
       sodipodi:nodetypes="cccczzczzzczzc" />
  </g>
</svg>
