<?xml version="1.0" encoding="UTF-8" standalone="no"?>
<svg
   xmlns:dc="http://purl.org/dc/elements/1.1/"
   xmlns:cc="http://creativecommons.org/ns#"
   xmlns:rdf="http://www.w3.org/1999/02/22-rdf-syntax-ns#"
   xmlns:svg="http://www.w3.org/2000/svg"
   xmlns="http://www.w3.org/2000/svg"
   xmlns:sodipodi="http://sodipodi.sourceforge.net/DTD/sodipodi-0.dtd"
   xmlns:inkscape="http://www.inkscape.org/namespaces/inkscape"
   enable-background="new 0 0 50 50"
   height="256"
   id="Layer_1"
   version="1.1"
   viewBox="0 0 256 256"
   width="256"
   xml:space="preserve"
   inkscape:version="0.91 r13725"
   sodipodi:docname="gri.svg"><metadata
     id="metadata13"><rdf:RDF><cc:Work
         rdf:about=""><dc:format>image/svg+xml</dc:format><dc:type
           rdf:resource="http://purl.org/dc/dcmitype/StillImage" /><dc:title></dc:title></cc:Work></rdf:RDF></metadata><defs
     id="defs11" /><sodipodi:namedview
     pagecolor="#ffffff"
     bordercolor="#666666"
     borderopacity="1"
     objecttolerance="10"
     gridtolerance="10"
     guidetolerance="10"
     inkscape:pageopacity="0"
     inkscape:pageshadow="2"
     inkscape:window-width="1366"
     inkscape:window-height="711"
     id="namedview9"
     showgrid="false"
     inkscape:zoom="1.240199"
     inkscape:cx="7.1348006"
     inkscape:cy="142.96689"
     inkscape:window-x="0"
     inkscape:window-y="0"
     inkscape:window-maximized="1"
     inkscape:current-layer="Layer_1" /><circle
     cx="128"
     cy="128"
     r="122.88"
     stroke-miterlimit="10"
     id="circle3"
     style="fill:#c5cde0;stroke:#c8c8c8;stroke-width:10.23999977;stroke-linecap:round;stroke-miterlimit:10;fill-opacity:1;stroke-opacity:1" /><path
     d="m 153.96966,175.91672 c -0.74752,-8.25344 -0.4608,-14.01344 -0.4608,-21.5552 3.7376,-1.96096 10.43456,-14.464 11.56608,-25.02656 2.93888,-0.24064 7.57248,-3.10784 8.92928,-14.42816 0.73216,-6.07744 -2.176,-9.4976 -3.94752,-10.5728 4.78208,-14.382077 14.71488,-58.874877 -18.37056,-63.472637 -3.4048,-5.98016 -12.12416,-9.00608 -23.45472,-9.00608 -45.332485,0.83456 -50.800645,34.23232 -40.862725,72.478717 -1.7664,1.0752 -4.67456,4.49536 -3.94752,10.5728 1.36192,11.32032 5.9904,14.18752 8.92928,14.42816 1.1264,10.55744 8.089605,23.0656 11.837445,25.02656 0,7.54176 0.2816,13.30176 -0.46592,21.5552 -6.456325,17.3568 -39.613445,18.7136 -58.741765,35.45088 19.99872,20.13696 45.570691,34.83892 86.609925,34.53952 39.90648,-0.29114 74.40384,-27.00288 81.09568,-34.37056 -19.01056,-16.89088 -52.24448,-18.2016 -58.71616,-35.61984 z"
     id="path7"
     inkscape:connector-curvature="0"
     style="fill:#ffffff"
     sodipodi:nodetypes="cccccccccccccscc" /><rect
     height="256"
     width="256"
     id="rect5"
     x="3.659295e-15"
     y="0"
     style="fill:none" /></svg>